# Blender v2.78 (sub 0) OBJ File: ''
# www.blender.org
mtllib level1.mtl
o Cube
v 4.840398 -1.000000 -4.840397
v 4.840398 -1.000000 4.840398
v -4.840398 -1.000000 4.840397
v -4.840396 -1.000000 -4.840400
v 4.840400 -0.745929 -4.840395
v 4.840394 -0.745929 4.840401
v -4.840400 -0.745929 4.840396
v -4.840397 -0.745929 -4.840398
vn 0.0000 -1.0000 0.0000
vn 0.0000 1.0000 -0.0000
vn 1.0000 -0.0000 0.0000
vn -0.0000 -0.0000 1.0000
vn -1.0000 -0.0000 -0.0000
vn 0.0000 0.0000 -1.0000
usemtl Material
s off
f 2//1 4//1 1//1
f 8//2 6//2 5//2
f 5//3 2//3 1//3
f 6//4 3//4 2//4
f 7//5 4//5 3//5
f 1//6 8//6 5//6
f 2//1 3//1 4//1
f 8//2 7//2 6//2
f 5//3 6//3 2//3
f 6//4 7//4 3//4
f 7//5 8//5 4//5
f 1//6 4//6 8//6
